<?xml version="1.0" encoding="UTF-8" standalone="no"?>
<!-- Created with Inkscape (http://www.inkscape.org/) -->

<svg
   width="25cm"
   height="25cm"
   viewBox="0 0 250 250"
   version="1.1"
   id="svg1"
   xml:space="preserve"
   sodipodi:docname="ATGC_finala.svg"
   inkscape:version="1.4 (86a8ad7, 2024-10-11)"
   xmlns:inkscape="http://www.inkscape.org/namespaces/inkscape"
   xmlns:sodipodi="http://sodipodi.sourceforge.net/DTD/sodipodi-0.dtd"
   xmlns="http://www.w3.org/2000/svg"
   xmlns:svg="http://www.w3.org/2000/svg"><sodipodi:namedview
     id="namedview1"
     pagecolor="#ffffff"
     bordercolor="#000000"
     borderopacity="0.25"
     inkscape:showpageshadow="2"
     inkscape:pageopacity="0.0"
     inkscape:pagecheckerboard="0"
     inkscape:deskcolor="#d1d1d1"
     inkscape:document-units="mm"
     inkscape:zoom="1"
     inkscape:cx="671"
     inkscape:cy="509"
     inkscape:window-width="3840"
     inkscape:window-height="2054"
     inkscape:window-x="-11"
     inkscape:window-y="-11"
     inkscape:window-maximized="1"
     inkscape:current-layer="layer1" /><defs
     id="defs1" /><g
     inkscape:label="Camada 1"
     inkscape:groupmode="layer"
     id="layer1"><g
       id="g8"
       transform="translate(1.7661487,-2.365731)"><path
         id="path1"
         style="opacity:0.941704;fill:#00ba00;fill-opacity:1;stroke:#000000;stroke-width:0.176474;stroke-dasharray:none"
         d="m 173.77129,50.119093 c -5.1528,-7.2e-5 -9.32999,4.077689 -9.32992,9.107839 -7e-5,5.030151 4.17712,9.107912 9.32992,9.107839 5.15256,-2.71e-4 9.32938,-4.077931 9.3293,-9.107839 8e-5,-5.029907 -4.17674,-9.107568 -9.3293,-9.107839 z m 32.25401,0.02434 c -5.1528,-7.2e-5 -9.33,4.077689 -9.32992,9.107839 -8e-5,5.03015 4.17712,9.107911 9.32992,9.107839 5.15256,-2.71e-4 9.32938,-4.077932 9.3293,-9.107839 8e-5,-5.029907 -4.17674,-9.107567 -9.3293,-9.107839 z M 39.167051,120.65221 c -5.152814,-8e-5 -9.330009,4.07769 -9.329927,9.10784 -7.5e-5,5.03015 4.177118,9.10791 9.329927,9.10785 5.152808,6e-5 9.330002,-4.0777 9.329927,-9.10785 8.2e-5,-5.03015 -4.177115,-9.10792 -9.329927,-9.10784 z m 32.228703,0.0487 c -5.152808,-7e-5 -9.330002,4.07769 -9.329927,9.10783 -7.5e-5,5.03015 4.177119,9.10791 9.329927,9.10785 5.152808,6e-5 9.330003,-4.0777 9.329928,-9.10785 7.5e-5,-5.03014 -4.17712,-9.1079 -9.329928,-9.10783 z"
         sodipodi:nodetypes="cccccccccccccccccccc" /><path
         id="path3"
         style="opacity:0.941704;fill:#008e9c;fill-opacity:1;stroke:#000000;stroke-width:0.176474;stroke-linejoin:round;stroke-dasharray:none"
         d="m 214.34184,23.917479 -66.21408,0.07483 c -2.49888,0.0028 -4.99018,0.753034 -6.69144,2.938601 l -16.24404,20.868328 c -0.85961,1.104318 -0.89741,1.855837 -0.34792,2.566865 l 9.63041,12.461372 c 1.87041,2.420257 2.82306,2.363704 4.48625,0.223286 l 13.61442,-17.520877 c 1.75962,-2.264538 3.94981,-3.34592 6.2657,-3.34745 l 54.4563,-0.03711 c 4.44179,-0.003 6.58141,-0.627166 7.3683,-8.946611 0.33338,-3.524672 -1.64299,-9.286532 -6.3239,-9.281234 z m -40.81029,48.965736 c -3.7259,-0.06271 -8.53945,3.258624 -8.5468,7.0496 l -0.0955,51.738855 c -0.009,5.17681 5.09141,8.17351 9.35333,7.77238 4.87737,-0.45907 8.17672,-2.80994 8.17672,-8.66674 V 79.19604 c 0,-2.682915 -4.21822,-6.234226 -8.88775,-6.312825 z m 32.05222,0.105253 c -3.7259,-0.06271 -8.53882,3.258629 -8.54617,7.049605 l -0.0961,51.738837 c -0.009,5.17682 5.09142,8.17352 9.35333,7.77239 4.87737,-0.45906 8.17737,-2.80994 8.17737,-8.66673 V 79.301288 c 0,-2.682905 -4.21886,-6.23422 -8.88838,-6.31282 z m -102.33696,4.050769 c -0.56221,-0.01625 -1.18338,0.264507 -1.763,1.002655 l -9.069941,11.549974 c -1.446012,1.841491 -2.498727,4.138195 -0.289722,6.974773 L 141.45151,159.9084 c 2.24078,3.28385 5.15856,4.79214 8.53287,5.10269 l 64.6244,-0.10524 c 4.45994,-0.007 6.29039,-5.10572 6.07152,-9.89025 -0.16679,-3.64583 -2.04154,-8.2306 -5.90768,-8.23294 l -55.10723,-0.0261 c -2.64578,-0.28467 -5.00604,-1.09323 -6.66424,-3.46852 L 117.03137,97.013246 c -1.84459,-2.373053 -1.67497,-3.454426 -1.99136,-5.580298 L 104.65494,77.818651 c -0.34306,-0.449762 -0.84593,-0.763073 -1.40813,-0.779372 z"
         sodipodi:nodetypes="sccccccsccscsccsssssccssssscccccssccccccsccc" /><path
         id="path5"
         style="opacity:1;fill:#00579f;fill-opacity:1;stroke:#000000;stroke-width:0.176474;stroke-linejoin:round;stroke-dasharray:none"
         d="m 31.983469,23.828042 c -1.944515,-0.0041 -6.146907,2.520594 -6.217,9.615859 -0.05454,5.520137 3.507275,8.767856 5.53065,8.760438 15.53446,-0.05686 43.394326,-0.112482 46.671145,-0.0219 8.723166,0.241145 8.085044,1.581674 9.282484,3.124774 L 134.59054,106.3127 c 2.39944,3.09207 3.22791,3.34968 4.56406,1.56238 l 6.73002,-9.001979 c 1.74657,-2.336272 4.5668,-5.0288 1.77881,-8.630233 L 102.79894,32.287321 C 99.324005,27.798482 97.195545,23.996406 91.427677,23.955199 86.662712,23.921159 51.798144,23.870379 31.983469,23.828042 Z M 71.24773,50.052169 c -3.725895,-0.06271 -8.538816,3.258015 -8.54616,7.048992 l -0.09552,51.738859 c -0.0095,5.1768 5.090788,8.17412 9.3527,7.77299 4.877375,-0.45907 8.177366,-2.81056 8.177366,-8.66736 V 56.364991 c 0,-2.682911 -4.218854,-6.234223 -8.888388,-6.312822 z m -31.951633,0.105254 c -3.725896,-0.06271 -8.538816,3.258017 -8.546161,7.048994 l -0.09615,51.738853 c -0.0095,5.17681 5.09142,8.17413 9.353333,7.77299 4.877375,-0.45906 8.177367,-2.81056 8.177367,-8.66735 V 56.470245 c 0,-2.682912 -4.218856,-6.234223 -8.888387,-6.312822 z m 67.183833,75.902907 c -0.47514,-0.008 -0.94574,0.30663 -1.43343,0.93026 l -12.758514,16.3144 c -1.351203,1.72782 -3.517586,3.22229 -4.824691,3.22699 l -55.674662,0.17827 c -3.614002,0.37595 -6.00078,3.49059 -5.8792,9.15103 0.17317,8.06276 4.46605,9.12038 5.144142,9.11332 21.686529,-0.23425 64.843455,0.006 64.899582,0 4.513633,-0.43629 6.484973,-2.42546 7.309463,-3.49652 l 14.1173,-18.33918 c 0.65799,-0.85482 1.47731,-1.68543 0.69584,-2.71531 l -10.13331,-13.35392 c -0.50765,-0.669 -0.98738,-1.00093 -1.46252,-1.00934 z"
         sodipodi:nodetypes="sscsccccccsssccsssssccsssssccccsccscccsc" /><path
         id="path2"
         style="opacity:1;fill:#00629c;fill-opacity:1;stroke:#000000;stroke-width:0.317631"
         d="m 147.46797,177.62519 c -4.81587,0.13922 -9.67779,1.41343 -14.4823,4.60198 -11.04547,7.33041 -13.24412,17.74346 -11.01195,28.58048 1.56899,7.61726 5.42266,14.05208 13.80543,17.48315 11.30677,4.62787 21.87236,2.38703 30.89017,-2.29733 l 0.12144,-24.64774 -19.75677,-0.0778 0.12144,8.68318 8.82576,0.039 0.24291,10.20177 c -5.54587,1.43934 -9.73576,1.75531 -13.64349,-0.23363 -6.62544,-3.37221 -10.37818,-12.96601 -8.62334,-19.97519 1.95891,-7.82424 9.78459,-14.01904 19.59481,-12.26547 3.24879,0.58072 6.58324,1.13203 9.35207,2.64778 l 2.69225,-9.30616 c -5.82079,-1.91576 -11.93663,-3.61286 -18.12848,-3.43385 z m 55.3413,0.1959 c -6.04947,-0.0357 -11.99403,1.59187 -17.59776,5.97211 -8.19433,6.40522 -10.29978,15.34657 -9.01742,24.94526 1.68605,12.62054 9.51325,18.71365 19.18047,20.84277 9.62874,2.12065 17.48217,0.1526 24.61938,-3.27686 l -2.86306,-8.7276 c -6.72742,3.24709 -13.6882,4.31945 -20.21031,1.70719 -7.06047,-2.82789 -9.30245,-9.56454 -8.7315,-17.48376 0.61682,-8.55552 5.98207,-12.58725 13.22599,-13.98725 5.30531,-1.02534 10.25647,0.28532 14.88588,2.42328 l 2.60496,-9.18268 c -5.33942,-1.87424 -10.75886,-3.20086 -16.09663,-3.23246 z m -85.18644,0.96127 -42.883889,0.1375 0.142964,9.16869 15.830956,0.0547 -0.02846,41.35519 h 11.278909 l 0.0291,-41.3272 15.68737,-0.1381 z m -57.770402,0.1375 -13.397419,0.0275 -19.809887,50.49648 11.70843,-0.0554 4.35152,-11.20623 20.496868,-0.16488 4.552049,11.61874 11.822927,-0.11008 z m -6.612363,10.15978 7.213947,20.12669 -14.456991,0.11008 z" /></g></g></svg>
