<?xml version="1.0" encoding="UTF-8" standalone="no"?><!DOCTYPE svg PUBLIC "-//W3C//DTD SVG 1.1//EN" "http://www.w3.org/Graphics/SVG/1.1/DTD/svg11.dtd"><svg width="100%" height="100%" viewBox="0 0 1767 1434" version="1.1" xmlns="http://www.w3.org/2000/svg" xmlns:xlink="http://www.w3.org/1999/xlink" xml:space="preserve" xmlns:serif="http://www.serif.com/" style="fill-rule:evenodd;clip-rule:evenodd;stroke-miterlimit:2;"><g><path d="M139.4,1265.933l8.713,0l17.296,45l-8.896,0l-3.513,-9.279l-18.362,0l-3.7,9.279l-8.896,0l17.358,-45Zm4.388,11.908l-6.017,15.479l11.971,0l-5.954,-15.479Z" style="fill:#6c6e70;fill-rule:nonzero;"/><path d="M208.717,1304.35l7.833,10.154l-10.154,0l-3.946,-5.138c-3.325,1.817 -6.958,2.692 -11.033,2.692c-6.704,0 -12.346,-2.317 -16.796,-7.017c-4.45,-4.638 -6.704,-10.217 -6.704,-16.608c0,-4.325 1.062,-8.275 3.133,-11.908c2.067,-3.575 4.95,-6.458 8.583,-8.588c3.637,-2.067 7.521,-3.133 11.721,-3.133c6.392,0 11.846,2.254 16.421,6.892c4.638,4.642 6.896,10.217 6.896,16.862c0,6.079 -2.008,11.342 -5.954,15.792Zm-5.329,-6.892c1.817,-2.696 2.696,-5.704 2.696,-8.963c0,-4.262 -1.442,-7.9 -4.325,-10.846c-2.821,-3.008 -6.329,-4.513 -10.404,-4.513c-4.2,0 -7.708,1.442 -10.529,4.388c-2.883,2.883 -4.263,6.583 -4.263,11.033c0,4.95 1.754,8.9 5.329,11.783c2.821,2.317 5.954,3.446 9.525,3.446c2.071,0 3.95,-0.437 5.767,-1.192l-8.083,-10.404l10.212,0l4.075,5.267Z" style="fill:#6c6e70;fill-rule:nonzero;"/><path d="M220.508,1265.933l8.583,0l0,29.079c0,2.571 0.254,4.325 0.692,5.329c0.437,1.063 1.129,1.879 2.192,2.504c1.004,0.629 2.196,0.942 3.637,0.942c1.504,0 2.821,-0.312 3.883,-1.004c1.129,-0.75 1.883,-1.629 2.258,-2.696c0.438,-1.062 0.625,-3.071 0.625,-6.142l0,-28.012l8.65,0l0,26.821c0,4.512 -0.313,7.65 -0.813,9.404c-0.504,1.754 -1.442,3.446 -2.883,5.075c-1.442,1.629 -3.133,2.883 -5.017,3.638c-1.879,0.813 -4.008,1.188 -6.517,1.188c-3.258,0 -6.142,-0.75 -8.525,-2.254c-2.442,-1.504 -4.137,-3.383 -5.2,-5.642c-1.004,-2.254 -1.567,-6.079 -1.567,-11.408l0,-26.821Z" style="fill:#6c6e70;fill-rule:nonzero;"/><rect x="258.392" y="1265.933" width="8.525" height="45" style="fill:#6c6e70;fill-rule:nonzero;"/><path d="M315.996,1273.829l-5.954,5.704c-4.138,-4.262 -8.713,-6.458 -13.787,-6.458c-4.325,0 -7.958,1.504 -10.904,4.45c-2.946,2.946 -4.388,6.521 -4.388,10.846c0,3.008 0.625,5.637 1.942,7.958c1.317,2.379 3.133,4.2 5.517,5.517c2.379,1.313 5.075,2.004 7.958,2.004c2.508,0 4.762,-0.5 6.833,-1.442c2.067,-0.879 4.325,-2.571 6.829,-5.013l5.767,6.017c-3.321,3.258 -6.454,5.512 -9.4,6.767c-2.946,1.254 -6.329,1.879 -10.154,1.879c-6.958,0 -12.721,-2.192 -17.171,-6.642c-4.45,-4.45 -6.708,-10.154 -6.708,-17.046c0,-4.512 1.067,-8.525 3.071,-11.971c2.008,-3.513 4.95,-6.333 8.713,-8.463c3.825,-2.067 7.896,-3.133 12.221,-3.133c3.762,0 7.333,0.75 10.717,2.317c3.45,1.567 6.458,3.825 8.9,6.708Z" style="fill:#6c6e70;fill-rule:nonzero;"/><path d="M321.271,1265.933l8.587,0l0,29.079c0,2.571 0.25,4.325 0.688,5.329c0.438,1.063 1.129,1.879 2.192,2.504c1.004,0.629 2.196,0.942 3.638,0.942c1.504,0 2.821,-0.312 3.883,-1.004c1.129,-0.75 1.883,-1.629 2.258,-2.696c0.437,-1.062 0.625,-3.071 0.625,-6.142l0,-28.012l8.65,0l0,26.821c0,4.512 -0.312,7.65 -0.813,9.404c-0.504,1.754 -1.442,3.446 -2.883,5.075c-1.442,1.629 -3.133,2.883 -5.017,3.638c-1.879,0.813 -4.008,1.188 -6.517,1.188c-3.258,0 -6.142,-0.75 -8.525,-2.254c-2.442,-1.504 -4.133,-3.383 -5.2,-5.642c-1.004,-2.254 -1.567,-6.079 -1.567,-11.408l0,-26.821Z" style="fill:#6c6e70;fill-rule:nonzero;"/><path d="M359.779,1265.933l8.588,0l0,36.85l12.471,0l0,8.15l-21.058,0l0,-45Z" style="fill:#6c6e70;fill-rule:nonzero;"/><path d="M380.983,1265.933l24.883,0l0,8.396l-8.212,0l0,36.604l-8.646,0l0,-36.604l-8.025,0l0,-8.396Z" style="fill:#6c6e70;fill-rule:nonzero;"/><path d="M409.521,1265.933l8.583,0l0,29.079c0,2.571 0.254,4.325 0.692,5.329c0.438,1.063 1.129,1.879 2.192,2.504c1.004,0.629 2.196,0.942 3.638,0.942c1.504,0 2.821,-0.312 3.883,-1.004c1.129,-0.75 1.883,-1.629 2.258,-2.696c0.438,-1.062 0.625,-3.071 0.625,-6.142l0,-28.012l8.65,0l0,26.821c0,4.512 -0.312,7.65 -0.817,9.404c-0.5,1.754 -1.438,3.446 -2.879,5.075c-1.442,1.629 -3.137,2.883 -5.017,3.638c-1.879,0.813 -4.008,1.188 -6.517,1.188c-3.258,0 -6.142,-0.75 -8.525,-2.254c-2.442,-1.504 -4.138,-3.383 -5.2,-5.642c-1.004,-2.254 -1.567,-6.079 -1.567,-11.408l0,-26.821Z" style="fill:#6c6e70;fill-rule:nonzero;"/><path d="M448.596,1265.933l9.087,0c5.013,0 8.521,0.437 10.654,1.313c2.129,0.879 3.821,2.383 5.075,4.387c1.317,2.071 1.942,4.512 1.942,7.333c0,2.946 -0.687,5.454 -2.129,7.458c-1.379,1.946 -3.571,3.45 -6.392,4.512l10.654,19.996l-9.4,0l-10.092,-19.054l-0.817,0l0,19.054l-8.583,0l0,-45Zm8.583,17.546l2.696,0c2.758,0 4.638,-0.312 5.642,-1.063c1.067,-0.692 1.567,-1.883 1.567,-3.513c0,-1 -0.25,-1.879 -0.754,-2.567c-0.563,-0.754 -1.188,-1.254 -2.067,-1.571c-0.879,-0.312 -2.446,-0.5 -4.7,-0.5l-2.383,0l0,9.212Z" style="fill:#6c6e70;fill-rule:nonzero;"/><path d="M496.183,1265.933l8.712,0l17.296,45l-8.9,0l-3.508,-9.279l-18.362,0l-3.7,9.279l-8.9,0l17.363,-45Zm4.387,11.908l-6.017,15.479l11.971,0l-5.954,-15.479Z" style="fill:#6c6e70;fill-rule:nonzero;"/><path d="M548.063,1302.221c1.317,0 2.446,0.437 3.387,1.379c0.938,0.938 1.442,2.067 1.442,3.383c0,1.317 -0.504,2.446 -1.442,3.383c-0.942,0.942 -2.071,1.442 -3.387,1.442c-1.313,0 -2.442,-0.5 -3.383,-1.442c-0.938,-0.938 -1.379,-2.067 -1.379,-3.383c0,-1.317 0.442,-2.446 1.379,-3.383c0.942,-0.942 2.071,-1.379 3.383,-1.379Z" style="fill:#6c6e70;fill-rule:nonzero;"/><path d="M581.904,1265.933l8.4,0l10.404,31.4l10.592,-31.4l8.271,0l7.583,45l-8.271,0l-4.825,-28.454l-9.592,28.454l-7.583,0l-9.463,-28.454l-4.887,28.454l-8.4,0l7.771,-45Z" style="fill:#6c6e70;fill-rule:nonzero;"/><path d="M632.117,1265.933l24.567,0l0,8.333l-16.104,0l0,8.15l16.104,0l0,8.271l-16.104,0l0,11.846l16.104,0l0,8.4l-24.567,0l0,-45Z" style="fill:#6c6e70;fill-rule:nonzero;"/><rect x="662.092" y="1265.933" width="8.525" height="45" style="fill:#6c6e70;fill-rule:nonzero;"/><path d="M699.579,1264.804c6.396,0 11.846,2.254 16.421,6.892c4.638,4.642 6.896,10.217 6.896,16.862c0,6.579 -2.258,12.158 -6.771,16.671c-4.513,4.575 -10.025,6.829 -16.483,6.829c-6.704,0 -12.346,-2.317 -16.796,-7.017c-4.45,-4.638 -6.704,-10.217 -6.704,-16.608c0,-4.325 1.067,-8.275 3.133,-11.908c2.067,-3.638 4.95,-6.458 8.588,-8.588c3.633,-2.133 7.521,-3.133 11.717,-3.133Zm-0.062,8.333c-4.133,0 -7.646,1.442 -10.467,4.388c-2.883,2.883 -4.258,6.583 -4.258,11.033c0,4.95 1.754,8.9 5.325,11.783c2.758,2.317 5.954,3.446 9.525,3.446c4.075,0 7.521,-1.504 10.404,-4.45c2.883,-2.946 4.262,-6.517 4.262,-10.842c0,-4.262 -1.442,-7.9 -4.325,-10.908c-2.821,-2.946 -6.329,-4.45 -10.467,-4.45Z" style="fill:#6c6e70;fill-rule:nonzero;"/><path d="M760.308,1265.933l8.713,0l17.3,45l-8.9,0l-3.512,-9.279l-18.363,0l-3.696,9.279l-8.9,0l17.358,-45Zm4.388,11.908l-6.017,15.479l11.971,0l-5.954,-15.479Z" style="fill:#6c6e70;fill-rule:nonzero;"/><path d="M795.342,1265.933l8.4,0l10.404,31.4l10.592,-31.4l8.271,0l7.583,45l-8.271,0l-4.825,-28.454l-9.592,28.454l-7.583,0l-9.462,-28.454l-4.888,28.454l-8.4,0l7.771,-45Z" style="fill:#6c6e70;fill-rule:nonzero;"/><path d="M845.492,1310.933l0,-45l7.079,0c4.075,0 7.083,0.25 8.963,0.75c2.696,0.754 4.892,2.067 6.458,4.012c1.567,1.942 2.379,4.2 2.379,6.829c0,1.754 -0.375,3.258 -1.063,4.7c-0.754,1.379 -1.946,2.696 -3.575,3.888c2.758,1.317 4.763,2.946 6.017,4.825c1.254,1.946 1.883,4.2 1.883,6.833c0,2.571 -0.629,4.888 -1.946,6.954c-1.317,2.071 -3.008,3.638 -5.012,4.642c-2.067,1.063 -4.95,1.567 -8.588,1.567l-12.596,0Zm8.583,-36.854l0,9.462l1.883,0c2.067,0 3.571,-0.437 4.638,-1.317c1.004,-0.875 1.504,-2.067 1.504,-3.571c0,-1.379 -0.5,-2.508 -1.442,-3.321c-0.942,-0.817 -2.446,-1.254 -4.388,-1.254l-2.196,0Zm0,17.108l0,11.596l2.133,0c3.571,0 5.954,-0.5 7.208,-1.379c1.192,-0.875 1.817,-2.192 1.817,-3.883c0,-1.946 -0.692,-3.513 -2.196,-4.637c-1.438,-1.129 -3.821,-1.696 -7.204,-1.696l-1.758,0Z" style="fill:#6c6e70;fill-rule:nonzero;"/><rect x="879.292" y="1265.933" width="8.525" height="45" style="fill:#6c6e70;fill-rule:nonzero;"/><path d="M895.596,1265.933l24.567,0l0,8.333l-16.108,0l0,8.15l16.108,0l0,8.271l-16.108,0l0,11.846l16.108,0l0,8.4l-24.567,0l0,-45Z" style="fill:#6c6e70;fill-rule:nonzero;"/><path d="M926.263,1265.933l8.146,0l19.367,29.579l0,-29.579l8.525,0l0,45l-8.213,0l-19.304,-29.521l0,29.521l-8.521,0l0,-45Z" style="fill:#6c6e70;fill-rule:nonzero;"/><path d="M966.183,1265.933l24.879,0l0,8.396l-8.208,0l0,36.604l-8.65,0l0,-36.604l-8.021,0l0,-8.396Z" style="fill:#6c6e70;fill-rule:nonzero;"/><path d="M995.096,1265.933l24.567,0l0,8.333l-16.108,0l0,8.15l16.108,0l0,8.271l-16.108,0l0,11.846l16.108,0l0,8.4l-24.567,0l0,-45Z" style="fill:#6c6e70;fill-rule:nonzero;"/><path d="M1046.871,1302.221c1.317,0 2.446,0.437 3.383,1.379c0.942,0.938 1.442,2.067 1.442,3.383c0,1.317 -0.5,2.446 -1.442,3.383c-0.938,0.942 -2.067,1.442 -3.383,1.442c-1.317,0 -2.446,-0.5 -3.383,-1.442c-0.942,-0.938 -1.379,-2.067 -1.379,-3.383c0,-1.317 0.438,-2.446 1.379,-3.383c0.937,-0.942 2.067,-1.379 3.383,-1.379Z" style="fill:#6c6e70;fill-rule:nonzero;"/><path d="M1076.45,1265.933l10.154,0c6.517,0 11.404,0.812 14.604,2.379c3.133,1.629 5.762,4.262 7.833,7.958c2.067,3.638 3.071,7.9 3.071,12.788c0,3.446 -0.563,6.642 -1.692,9.525c-1.192,2.946 -2.758,5.329 -4.763,7.271c-2.071,1.879 -4.263,3.258 -6.646,3.95c-2.317,0.75 -6.454,1.129 -12.283,1.129l-10.279,0l0,-45Zm8.525,8.208l0,28.392l3.946,0c3.95,0 6.771,-0.437 8.525,-1.317c1.754,-0.942 3.196,-2.446 4.325,-4.575c1.129,-2.067 1.692,-4.7 1.692,-7.833c0,-4.762 -1.317,-8.462 -4.012,-11.096c-2.379,-2.379 -6.267,-3.571 -11.592,-3.571l-2.883,0Z" style="fill:#6c6e70;fill-rule:nonzero;"/><path d="M1118.408,1265.933l24.567,0l0,8.333l-16.104,0l0,8.15l16.104,0l0,8.271l-16.104,0l0,11.846l16.104,0l0,8.4l-24.567,0l0,-45Z" style="fill:#6c6e70;fill-rule:nonzero;"/><path d="M1172.642,1272.013l-6.329,5.637c-2.258,-3.133 -4.513,-4.7 -6.833,-4.7c-1.129,0 -2.004,0.312 -2.758,0.942c-0.688,0.563 -1.067,1.254 -1.067,2.004c0,0.754 0.254,1.504 0.754,2.196c0.688,0.875 2.821,2.821 6.267,5.767c3.258,2.692 5.267,4.446 5.954,5.137c1.754,1.754 2.946,3.446 3.7,5.075c0.687,1.567 1.063,3.325 1.063,5.204c0,3.696 -1.254,6.767 -3.821,9.15c-2.508,2.446 -5.892,3.633 -9.967,3.633c-3.196,0 -6.017,-0.75 -8.333,-2.379c-2.383,-1.567 -4.45,-4.012 -6.146,-7.396l7.208,-4.325c2.133,3.95 4.638,5.954 7.458,5.954c1.442,0 2.696,-0.437 3.7,-1.254c1,-0.879 1.504,-1.879 1.504,-3.008c0,-1.004 -0.379,-2.004 -1.129,-3.071c-0.754,-1.004 -2.446,-2.571 -5.013,-4.638c-4.892,-4.012 -8.025,-7.083 -9.467,-9.275c-1.442,-2.196 -2.129,-4.325 -2.129,-6.521c0,-3.133 1.192,-5.762 3.571,-8.021c2.383,-2.254 5.267,-3.321 8.775,-3.321c2.258,0 4.388,0.5 6.392,1.504c2.071,1.067 4.263,2.946 6.646,5.704Z" style="fill:#6c6e70;fill-rule:nonzero;"/><path d="M1179.742,1265.933l24.567,0l0,8.333l-16.104,0l0,8.15l16.104,0l0,8.271l-16.104,0l0,11.846l16.104,0l0,8.4l-24.567,0l0,-45Z" style="fill:#6c6e70;fill-rule:nonzero;"/><path d="M1210.408,1265.933l8.15,0l19.363,29.579l0,-29.579l8.525,0l0,45l-8.208,0l-19.304,-29.521l0,29.521l-8.525,0l0,-45Z" style="fill:#6c6e70;fill-rule:nonzero;"/><path d="M1251.333,1265.933l8.837,0l11.342,31.962l11.471,-31.962l8.775,0l-16.171,45l-8.275,0l-15.979,-45Z" style="fill:#6c6e70;fill-rule:nonzero;"/><path d="M1317.983,1264.804c6.396,0 11.846,2.254 16.421,6.892c4.637,4.642 6.896,10.217 6.896,16.862c0,6.579 -2.258,12.158 -6.771,16.671c-4.513,4.575 -10.025,6.829 -16.483,6.829c-6.704,0 -12.346,-2.317 -16.796,-7.017c-4.45,-4.638 -6.704,-10.217 -6.704,-16.608c0,-4.325 1.063,-8.275 3.133,-11.908c2.067,-3.638 4.95,-6.458 8.583,-8.588c3.637,-2.133 7.521,-3.133 11.721,-3.133Zm-0.062,8.333c-4.138,0 -7.646,1.442 -10.467,4.388c-2.883,2.883 -4.263,6.583 -4.263,11.033c0,4.95 1.758,8.9 5.329,11.783c2.758,2.317 5.954,3.446 9.525,3.446c4.075,0 7.521,-1.504 10.404,-4.45c2.883,-2.946 4.263,-6.517 4.263,-10.842c0,-4.262 -1.442,-7.9 -4.325,-10.908c-2.821,-2.946 -6.329,-4.45 -10.467,-4.45Z" style="fill:#6c6e70;fill-rule:nonzero;"/><path d="M1347.45,1265.933l8.587,0l0,36.85l12.471,0l0,8.15l-21.058,0l0,-45Z" style="fill:#6c6e70;fill-rule:nonzero;"/><path d="M1369.654,1265.933l8.838,0l11.346,31.962l11.471,-31.962l8.771,0l-16.167,45l-8.275,0l-15.983,-45Z" style="fill:#6c6e70;fill-rule:nonzero;"/><rect x="1414.433" y="1265.933" width="8.525" height="45" style="fill:#6c6e70;fill-rule:nonzero;"/><path d="M1435,1265.933l8.396,0l10.404,31.4l10.592,-31.4l8.275,0l7.583,45l-8.271,0l-4.829,-28.454l-9.588,28.454l-7.583,0l-9.462,-28.454l-4.892,28.454l-8.396,0l7.771,-45Z" style="fill:#6c6e70;fill-rule:nonzero;"/><path d="M1485.212,1265.933l24.567,0l0,8.333l-16.108,0l0,8.15l16.108,0l0,8.271l-16.108,0l0,11.846l16.108,0l0,8.4l-24.567,0l0,-45Z" style="fill:#6c6e70;fill-rule:nonzero;"/><path d="M1515.879,1265.933l8.146,0l19.367,29.579l0,-29.579l8.525,0l0,45l-8.213,0l-19.304,-29.521l0,29.521l-8.521,0l0,-45Z" style="fill:#6c6e70;fill-rule:nonzero;"/><path d="M1555.8,1265.933l24.879,0l0,8.396l-8.208,0l0,36.604l-8.65,0l0,-36.604l-8.021,0l0,-8.396Z" style="fill:#6c6e70;fill-rule:nonzero;"/><path d="M1605.892,1264.804c6.396,0 11.846,2.254 16.421,6.892c4.638,4.642 6.896,10.217 6.896,16.862c0,6.579 -2.258,12.158 -6.771,16.671c-4.513,4.575 -10.025,6.829 -16.483,6.829c-6.704,0 -12.346,-2.317 -16.796,-7.017c-4.45,-4.638 -6.704,-10.217 -6.704,-16.608c0,-4.325 1.067,-8.275 3.133,-11.908c2.067,-3.638 4.95,-6.458 8.587,-8.588c3.633,-2.133 7.521,-3.133 11.717,-3.133Zm-0.063,8.333c-4.133,0 -7.646,1.442 -10.467,4.388c-2.883,2.883 -4.258,6.583 -4.258,11.033c0,4.95 1.754,8.9 5.325,11.783c2.758,2.317 5.954,3.446 9.525,3.446c4.075,0 7.525,-1.504 10.404,-4.45c2.883,-2.946 4.262,-6.517 4.262,-10.842c0,-4.262 -1.441,-7.9 -4.325,-10.908c-2.817,-2.946 -6.329,-4.45 -10.467,-4.45Z" style="fill:#6c6e70;fill-rule:nonzero;"/><path d="M103.758,612.925c0,0 38.063,-91.592 234.913,-193.379c36.463,-38.996 147.437,-236.821 404.283,-278.167c-41.142,27.904 -121.65,181.717 -127.321,245.679c6.504,15.487 36.862,11.85 36.862,11.85l-4.604,41.108c0,0 96.8,24.771 165.438,38.537c68.642,13.767 315.708,-126.162 315.487,-124.904c-174.667,142.133 -213.646,181.308 -182.758,259.471c-237.533,26.671 -457.875,275.388 -269.637,514.613c-11.15,16.833 -272.563,-188.592 -283.229,-304.579c-164.496,-61.242 -303.087,-175.233 -289.433,-210.229Z" style="fill:#bbbdc0;"/><path d="M826.417,479.45l0.063,0.025l-181.613,310.612c0,0 -23.179,46.208 -125.496,71.958c-101.812,24.579 138.313,-331.687 189.917,-406.863c32.029,7.704 71.246,16.796 104.042,23.371c3.825,0.767 8.229,1.033 13.087,0.896Z" style="fill:#01489d;"/><path d="M651.75,399.733c0,0 -179.571,-39.979 -267.479,5.546c-87.904,45.525 -42.883,90.712 -42.883,90.712l239.754,-22.179l66.688,-39.2l3.921,-34.879Z" style="fill:#01489d;"/><path d="M857.379,520.204c0,0 40.404,-104.158 150.15,-132.408c-93.45,64.896 -87.063,182.312 -61.575,225.792c-13.929,-8.537 -65.437,-81.646 -23.179,-151.679c-35.688,22.563 -65.396,58.296 -65.396,58.296Z" style="fill:#58595b;"/><path d="M248.096,573.854c-4.858,-3.608 -15.479,2.471 -23.725,13.575c-8.246,11.104 -10.987,23.029 -6.133,26.638c4.858,3.608 15.483,-2.471 23.725,-13.575c8.246,-11.104 10.992,-23.029 6.133,-26.638Z" style="fill:#403f41;"/><path d="M248.096,573.854c-4.858,-3.608 -15.479,2.471 -23.725,13.575c-8.246,11.104 -10.987,23.029 -6.133,26.638c4.858,3.608 15.483,-2.471 23.725,-13.575c8.246,-11.104 10.992,-23.029 6.133,-26.638Z" style="fill:none;stroke:#403f41;stroke-width:0.9px;"/><path d="M89.038,647.171c0,0 293.708,-436.375 719.3,-91.233c-438.258,-201.062 -719.3,91.233 -719.3,91.233Z" style="fill:#58595b;"/><path d="M397.908,386.437c25.417,-8.946 63.767,-14.388 97.733,-11.642c0,0 125.075,-190.642 345.917,-233.525c-266.383,-6.029 -443.65,245.167 -443.65,245.167Z" style="fill:#58595b;"/><path d="M144.625,707.75c12.829,21 350.792,211.858 636.212,-95.187c0.979,5.858 -96.183,181.1 -333.154,229.837c-0.692,75.683 35.954,159.354 74.021,204.25c-16.2,-3.792 -121.796,-109.337 -137.688,-209.317c-151.013,-21.246 -239.392,-129.583 -239.392,-129.583Z" style="fill:#58595b;"/><path d="M1213.225,646.9l-116.017,0l0,278.912l-191.946,0.012l0,175.021c-66.892,-38.833 -100.342,-95.271 -100.342,-169.329c0,-98.462 77.392,-200.675 217.571,-284.617c-107.958,0 -196.754,32.171 -266.246,96.675c-60.325,55.987 -90.408,118.687 -90.408,187.942c0,68.454 29.954,130.917 90.075,187.342c68.696,64.467 156.304,96.675 262.604,96.675l0,-221.279l79.946,0c0.071,0.704 0.146,14.317 0.221,15.008c10.538,100.325 45.104,147.625 114.542,206.271l0,-221.279l85.029,0c0.017,0.242 0.033,13.387 0.046,13.617c7.433,105.004 52.525,157.196 113.209,207.662l0,-221.279l103.316,0c0.042,0.288 0.079,13.487 0.121,13.762c14.667,106.425 59.25,170.792 114.129,207.517l0,-457.908c0,-26.821 -16.567,-65.808 -49.671,-85.612c-33.108,-19.804 -71.863,-25.112 -116.238,-25.112c-45.037,0 -83.792,5.208 -116.237,24.812c-32.442,19.604 -48.675,58.696 -48.675,85.912l0,168.175l-85.029,0.008l0,-278.908Zm301.6,278.9l-103.316,0l0,-165.479c0,-19.262 1.187,-54.983 51.658,-55.179c50.467,-0.196 51.658,37.837 51.658,55.179l0,165.479Z" style="fill:#01489d;fill-rule:nonzero;"/></g></svg>